HIERARCHY
ROOT Hips
{
	OFFSET 0.00 0.00 0.00
	CHANNELS 6 Xposition Yposition Zposition Xrotation Yrotation Zrotation
	JOINT Spine
	{
		OFFSET 0.00000 1.66264 2.49395
		CHANNELS 3 Xrotation Yrotation Zrotation
		JOINT Spine1
		{
			OFFSET 0.00000 0.57743 3.27475
			CHANNELS 3 Xrotation Yrotation Zrotation
			JOINT Spine2
			{
				OFFSET 0.00000 0.28982 3.31262
				CHANNELS 3 Xrotation Yrotation Zrotation
				JOINT Spine3
				{
					OFFSET 0.00000 0.00000 3.32527
					CHANNELS 3 Xrotation Yrotation Zrotation
					JOINT Neck
					{
						OFFSET 0.00000 -1.24697 8.72884
						CHANNELS 3 Xrotation Yrotation Zrotation
						JOINT Head
						{
							OFFSET 0.00000 -0.79396 4.50279
							CHANNELS 3 Xrotation Yrotation Zrotation
							End Site
							{
								OFFSET 0.00000 0.00001 5.38279
							}
						}
					}
					JOINT RightShoulder
					{
						OFFSET -1.14808 -1.91346 6.19963
						CHANNELS 3 Xrotation Yrotation Zrotation
						JOINT RightArm
						{
							OFFSET -5.70212 0.00000 0.00000
							CHANNELS 3 Xrotation Yrotation Zrotation
							JOINT RightForeArm
							{
								OFFSET -10.82477 0.00000 0.00000
								CHANNELS 3 Xrotation Yrotation Zrotation
								JOINT RightHand
								{
									OFFSET -10.02856 0.00000 0.00000
									CHANNELS 3 Xrotation Yrotation Zrotation
									JOINT RightHandEnd
									{
										OFFSET -2.68345 0.00000 0.00000
										CHANNELS 3 Xrotation Yrotation Zrotation
										End Site
										{
											OFFSET -2.68345 0.00000 0.00000
										}
									}
									JOINT RightHandThumb1
									{
										OFFSET -1.07338 -1.78897 -0.71559
										CHANNELS 3 Yrotation Xrotation Zrotation
										End Site
										{
											OFFSET -2.59202 -0.69453 0.00000
										}
									}
								}
							}
						}
					}
					JOINT LeftShoulder
					{
						OFFSET 1.14808 -1.91346 6.19963
						CHANNELS 3 Xrotation Yrotation Zrotation
						JOINT LeftArm
						{
							OFFSET 5.70212 0.00000 0.00000
							CHANNELS 3 Xrotation Yrotation Zrotation
							JOINT LeftForeArm
							{
								OFFSET 10.82477 0.00000 0.00000
								CHANNELS 3 Xrotation Yrotation Zrotation
								JOINT LeftHand
								{
									OFFSET 10.02856 0.00000 0.00000
									CHANNELS 3 Xrotation Yrotation Zrotation
									JOINT LeftHandEnd
									{
										OFFSET 2.68345 0.00000 0.00000
										CHANNELS 3 Xrotation Yrotation Zrotation
										End Site
										{
											OFFSET 2.68345 0.00000 0.00000
										}
									}
									JOINT LeftHandThumb1
									{
										OFFSET 1.07338 -1.78897 -0.71559
										CHANNELS 3 Yrotation Xrotation Zrotation
										End Site
										{
											OFFSET 2.59202 -0.69453 0.00000
										}
									}
								}
							}
						}
					}
				}
			}
		}
	}
	JOINT RightUpLeg
	{
		OFFSET -3.40597 0.00000 -0.99500
		CHANNELS 3 Xrotation Yrotation Zrotation
		JOINT RightLeg
		{
			OFFSET 0.00001 0.00000 -17.05191
			CHANNELS 3 Xrotation Yrotation Zrotation
			JOINT RightFoot
			{
				OFFSET 0.00001 0.00000 -15.93260
				CHANNELS 3 Xrotation Yrotation Zrotation
				JOINT RightToeBase
				{
					OFFSET 0.00000 -4.98016 -1.81263
					CHANNELS 3 Xrotation Yrotation Zrotation
					End Site
					{
						OFFSET 0.00000 -2.75539 -0.00000
					}
				}
			}
		}
	}
	JOINT LeftUpLeg
	{
		OFFSET 3.40597 0.00000 -0.99500
		CHANNELS 3 Xrotation Yrotation Zrotation
		JOINT LeftLeg
		{
			OFFSET 0.00001 0.00000 -17.05191
			CHANNELS 3 Xrotation Yrotation Zrotation
			JOINT LeftFoot
			{
				OFFSET 0.00001 0.00000 -15.93260
				CHANNELS 3 Xrotation Yrotation Zrotation
				JOINT LeftToeBase
				{
					OFFSET 0.00000 -4.98016 -1.81263
					CHANNELS 3 Xrotation Yrotation Zrotation
					End Site
					{
						OFFSET 0.00000 -2.75539 -0.00000
					}
				}
			}
		}
	}
}
MOTION
Frames: 7
Frame Time: 0.008342
 -3.9107 -29.7361 23.6940 78.5943 -7.0470 6.8686 6.9028 2.3248 0.1487 6.2073 1.4871 -0.4193 0.8058 0.6362 0.3750 -0.1839 1.4953 -1.2578 -12.1672 -12.1912 -0.1085 -1.3567 10.8920 5.3124 -16.4207 10.3850 27.0068 1.0812 -33.8245 45.1487 0.0000 0.0000 13.2219 -62.4707 76.6266 71.7441 0.0000 0.0000 -0.0000 0.0000 -0.0000 0.0000 -2.6627 -6.9071 -31.6169 -5.7781 17.6968 -35.4330 -0.0000 -0.0000 -25.8013 -21.1565 -46.5384 -27.0876 -0.0000 -0.0000 0.0000 -0.0000 0.0000 0.0000 -6.9601 -1.1480 -20.3916 12.7356 0.0000 0.0000 4.1007 -14.0981 -12.7949 3.7642 0.0000 0.0000 -16.4346 -2.7321 4.4846 17.6535 0.0000 0.0000 19.1705 18.2126 17.1985 19.0334 0.0000 0.0000
 -3.9395 -29.7294 23.6902 78.6494 -6.9790 7.0687 6.8580 2.3184 0.1559 6.1770 1.4774 -0.4171 0.7788 0.6143 0.3487 -0.2001 1.4887 -1.2333 -12.1325 -12.0232 -0.1920 -1.4367 10.7635 5.2332 -16.2988 10.4519 26.9438 0.8821 -33.9976 44.9893 0.0000 0.0000 13.1578 -62.9993 76.6050 72.4023 -0.0000 0.0000 -0.0000 0.0000 -0.0000 -0.0000 -2.6695 -6.7010 -31.3211 -6.9963 18.8502 -34.8397 -0.0000 -0.0000 -26.6843 -20.9113 -45.3948 -27.7593 0.0000 -0.0000 0.0000 -0.0000 0.0000 0.0000 -6.9180 -1.1631 -20.6402 12.6519 0.0000 0.0000 4.1260 -14.0524 -12.7484 3.8016 0.0000 0.0000 -16.4336 -2.7381 4.1943 17.4450 0.0000 0.0000 19.0145 18.3047 17.1911 19.0185 0.0000 0.0000
 -3.9628 -29.7233 23.6864 78.7083 -6.9141 7.2227 6.8150 2.3207 0.1617 6.1483 1.4709 -0.4136 0.7526 0.5992 0.3322 -0.2147 1.4881 -1.2162 -12.0523 -11.8847 -0.2501 -1.5362 10.6664 5.1649 -16.1874 10.4917 26.8881 0.6934 -34.1531 44.8610 0.0000 0.0000 13.0727 -63.5610 76.5774 73.0837 -0.0000 -0.0000 -0.0000 -0.0000 -0.0000 -0.0000 -2.6763 -6.5178 -31.0312 -8.1701 19.9224 -34.2206 -0.0000 -0.0000 -27.3950 -20.7576 -44.5459 -28.2893 -0.0000 0.0000 0.0000 -0.0000 0.0000 -0.0000 -6.8846 -1.1646 -20.8409 12.5695 0.0000 0.0000 4.1420 -13.9911 -12.7052 3.8293 0.0000 0.0000 -16.4239 -2.7437 3.9472 17.2365 0.0000 0.0000 18.8489 18.3699 17.2198 19.0031 0.0000 0.0000
 -3.9808 -29.7178 23.6825 78.7721 -6.8544 7.3319 6.7749 2.3329 0.1649 6.1202 1.4694 -0.4116 0.7252 0.5926 0.3251 -0.2239 1.4940 -1.2065 -11.9455 -11.7860 -0.2828 -1.6426 10.6008 5.1098 -16.0900 10.5036 26.8346 0.5233 -34.2897 44.7681 0.0000 0.0000 12.9802 -64.1123 76.5363 73.7378 0.0000 0.0000 -0.0000 0.0000 0.0000 -0.0000 -2.6917 -6.3645 -30.7675 -9.2462 20.8533 -33.6127 -0.0000 -0.0000 -27.8723 -20.6692 -44.0459 -28.5876 -0.0000 0.0000 -0.0000 -0.0000 0.0000 0.0000 -6.8615 -1.1517 -20.9920 12.4887 0.0000 0.0000 4.1470 -13.9131 -12.6740 3.8369 0.0000 0.0000 -16.4070 -2.7446 3.7241 17.0339 0.0000 0.0000 18.6849 18.4140 17.2805 18.9910 0.0000 0.0000
 -3.9933 -29.7130 23.6785 78.8373 -6.7991 7.4013 6.7398 2.3543 0.1607 6.0960 1.4731 -0.4074 0.7005 0.5944 0.3255 -0.2324 1.5061 -1.2048 -11.8216 -11.7298 -0.2961 -1.7568 10.5636 5.0715 -16.0025 10.4907 26.7801 0.3786 -34.3969 44.7109 0.0000 0.0000 12.8911 -64.6438 76.4909 74.3400 0.0000 -0.0000 -0.0000 -0.0000 0.0000 0.0000 -2.7138 -6.2587 -30.5543 -10.1945 21.6061 -33.0530 -0.0000 -0.0000 -28.0555 -20.7007 -43.8821 -28.6813 -0.0000 -0.0000 0.0000 0.0000 -0.0000 0.0000 -6.8451 -1.1259 -21.1067 12.4096 0.0000 0.0000 4.1421 -13.8188 -12.6527 3.8229 0.0000 0.0000 -16.3837 -2.7411 3.5147 16.8473 0.0000 0.0000 18.5333 18.4400 17.3553 18.9861 0.0000 0.0000
 -4.0003 -29.7089 23.6743 78.9029 -6.7489 7.4313 6.7122 2.3867 0.1505 6.0777 1.4823 -0.4025 0.6765 0.6037 0.3313 -0.2390 1.5238 -1.2106 -11.6983 -11.7163 -0.2938 -1.8735 10.5511 5.0514 -15.9177 10.4594 26.7180 0.2597 -34.4684 44.6936 0.0000 0.0000 12.8175 -65.1418 76.4486 74.8751 -0.0000 0.0000 0.0000 0.0000 0.0000 0.0000 -2.7526 -6.2040 -30.4079 -10.9668 22.1458 -32.5790 -0.0000 -0.0000 -27.9161 -20.8471 -44.0485 -28.5352 -0.0000 -0.0000 -0.0000 -0.0000 -0.0000 0.0000 -6.8360 -1.0873 -21.1893 12.3365 0.0000 0.0000 4.1275 -13.7112 -12.6412 3.7837 0.0000 0.0000 -16.3536 -2.7316 3.3107 16.6804 0.0000 0.0000 18.4014 18.4558 17.4326 18.9890 0.0000 0.0000
 -4.0015 -29.7059 23.6695 78.9676 -6.7057 7.4182 6.6930 2.4336 0.1389 6.0678 1.4960 -0.3997 0.6537 0.6192 0.3413 -0.2453 1.5470 -1.2253 -11.5878 -11.7461 -0.2781 -1.9861 10.5633 5.0502 -15.8253 10.4137 26.6432 0.1648 -34.4982 44.7261 0.0000 0.0000 12.7663 -65.6066 76.4036 75.3293 0.0000 0.0000 0.0000 -0.0000 -0.0000 0.0000 -2.8032 -6.2099 -30.3371 -11.5465 22.4619 -32.2158 -0.0000 -0.0000 -27.4419 -21.0926 -44.5004 -28.1566 0.0000 -0.0000 0.0000 0.0000 -0.0000 -0.0000 -6.8349 -1.0344 -21.2416 12.2752 0.0000 0.0000 4.1036 -13.5944 -12.6368 3.7240 0.0000 0.0000 -16.3129 -2.7147 3.1142 16.5305 0.0000 0.0000 18.2925 18.4698 17.5009 19.0021 0.0000 0.0000
